<svg width="32" height="32" viewBox="0 0 32 32" fill="none" xmlns="http://www.w3.org/2000/svg">
<path d="M6.92066 5.31042L5.89017 4.79994L5.89017 4.79994L6.92066 5.31042ZM10.3997 4V5.15H10.3997L10.3997 4ZM7.94036 4.26158L7.40654 3.24299L7.40654 3.24299L7.94036 4.26158ZM7.94036 27.7384L7.40654 28.757H7.40653L7.94036 27.7384ZM6.92066 26.6896L5.89017 27.2001L5.89017 27.2001L6.92066 26.6896ZM24.059 27.7384L24.5928 28.757H24.5928L24.059 27.7384ZM25.0787 26.6896L24.0482 26.1791L24.0482 26.1791L25.0787 26.6896ZM24.6496 11.697L25.4741 10.8954L25.4741 10.8954L24.6496 11.697ZM17.8498 4.70294L18.6743 3.90129V3.90129L17.8498 4.70294ZM21.5997 28V29.15H10.3997V28V26.85H21.5997V28ZM6.66634 24.16H5.51634V7.84H6.66634H7.81634V24.16H6.66634ZM6.66634 7.84H5.51634C5.51634 7.18639 5.5155 6.62894 5.55174 6.17262C5.58898 5.70381 5.67075 5.24288 5.89017 4.79994L6.92066 5.31042L7.95115 5.8209C7.91625 5.89135 7.87086 6.02315 7.84452 6.35475C7.81719 6.69885 7.81634 7.14949 7.81634 7.84H6.66634ZM10.3997 4L10.3997 5.15C9.72677 5.15 9.29322 5.15095 8.96345 5.17866C8.64809 5.20516 8.5318 5.24999 8.47419 5.28018L7.94036 4.26158L7.40654 3.24299C7.84806 3.0116 8.30802 2.92563 8.77084 2.88674C9.21925 2.84905 9.76579 2.85 10.3997 2.85V4ZM6.92066 5.31042L5.89017 4.79994C6.21971 4.1347 6.74863 3.58779 7.40654 3.24299L7.94036 4.26158L8.47419 5.28017C8.25401 5.39557 8.06902 5.58297 7.95115 5.8209L6.92066 5.31042ZM10.3997 28V29.15C9.76579 29.15 9.21925 29.1509 8.77084 29.1133C8.30802 29.0744 7.84806 28.9884 7.40654 28.757L7.94036 27.7384L8.47419 26.7198C8.53179 26.75 8.64809 26.7948 8.96345 26.8213C9.29321 26.8491 9.72677 26.85 10.3997 26.85V28ZM6.66634 24.16H7.81634C7.81634 24.8505 7.81719 25.3012 7.84452 25.6453C7.87086 25.9768 7.91625 26.1086 7.95115 26.1791L6.92066 26.6896L5.89017 27.2001C5.67075 26.7571 5.58898 26.2962 5.55174 25.8274C5.5155 25.3711 5.51634 24.8136 5.51634 24.16H6.66634ZM7.94036 27.7384L7.40653 28.757C6.74863 28.4122 6.21971 27.8653 5.89017 27.2001L6.92066 26.6896L7.95115 26.1791C8.06902 26.417 8.25401 26.6044 8.47419 26.7198L7.94036 27.7384ZM21.5997 28V26.85C22.2726 26.85 22.7061 26.8491 23.0359 26.8213C23.3513 26.7948 23.4676 26.75 23.5252 26.7198L24.059 27.7384L24.5928 28.757C24.1513 28.9884 23.6913 29.0744 23.2285 29.1133C22.7801 29.1509 22.2335 29.15 21.5997 29.15V28ZM25.333 24.16H26.483C26.483 24.8136 26.4839 25.3711 26.4476 25.8274C26.4104 26.2962 26.3286 26.7571 26.1092 27.2001L25.0787 26.6896L24.0482 26.1791C24.0831 26.1086 24.1285 25.9769 24.1548 25.6453C24.1822 25.3012 24.183 24.8505 24.183 24.16H25.333ZM24.059 27.7384L23.5252 26.7198C23.7453 26.6044 23.9303 26.417 24.0482 26.1791L25.0787 26.6896L26.1092 27.2001C25.7796 27.8653 25.2507 28.4122 24.5928 28.757L24.059 27.7384ZM25.333 13.3941H26.483V24.16H25.333H24.183V13.3941H25.333ZM10.3997 4V2.85H16.1998V4V5.15H10.3997V4ZM24.6496 11.697L23.825 12.4986L17.0252 5.50458L17.8498 4.70294L18.6743 3.90129L25.4741 10.8954L24.6496 11.697ZM24.1663 12.4V13.55H18.4227V12.4V11.25H24.1663V12.4ZM17.1663 11.1077H16.0163V5.2H17.1663H18.3163V11.1077H17.1663ZM18.4227 12.4V13.55C17.0634 13.55 16.0163 12.4258 16.0163 11.1077H17.1663H18.3163C18.3163 11.1578 18.335 11.1953 18.3589 11.2199C18.3822 11.2438 18.4039 11.25 18.4227 11.25V12.4ZM16.1998 4V2.85C16.7075 2.85 17.2029 2.96293 17.6539 3.17402L17.1663 4.21556L16.6788 5.25711C16.5285 5.18675 16.3655 5.15 16.1998 5.15V4ZM17.1663 4.21556L17.6539 3.17402C18.0318 3.3509 18.3779 3.5964 18.6743 3.90129L17.8498 4.70294L17.0252 5.50458C16.9226 5.39904 16.8049 5.31611 16.6788 5.25711L17.1663 4.21556ZM17.1663 5.2H16.0163V4.21556H17.1663H18.3163V5.2H17.1663ZM25.333 13.3941H24.183C24.183 13.2088 24.1441 13.0287 24.0718 12.8653L25.1235 12.4L26.1751 11.9347C26.3764 12.3898 26.483 12.8868 26.483 13.3941H25.333ZM25.1235 12.4L24.0718 12.8653C24.0112 12.7284 23.9277 12.6043 23.825 12.4986L24.6496 11.697L25.4741 10.8954C25.7705 11.2002 26.0063 11.5532 26.1751 11.9347L25.1235 12.4ZM24.1663 12.4V11.25H25.1235V12.4V13.55H24.1663V12.4Z" fill="#9131AE"/>
</svg>
