<svg width="32" height="32" viewBox="0 0 32 32" fill="none" xmlns="http://www.w3.org/2000/svg">
<path d="M4.4925 16.7069L15.7133 22.023C15.8937 22.1084 16.1063 22.1084 16.2867 22.023L27.5075 16.7069M4.4925 22.6992L15.7133 28.0153C15.8937 28.1008 16.1063 28.1008 16.2867 28.0153L27.5075 22.6992M15.7133 4.14352L4.35257 9.52588C3.88248 9.7486 3.88247 10.3821 4.35257 10.6048L15.7133 15.9872C15.8937 16.0727 16.1063 16.0727 16.2867 15.9872L27.6474 10.6048C28.1175 10.3821 28.1175 9.7486 27.6474 9.52588L16.2867 4.14352C16.1063 4.05804 15.8937 4.05804 15.7133 4.14352Z" stroke="#9131AE" stroke-width="2.3" stroke-linecap="round"/>
</svg>
