<svg width="16" height="16" viewBox="0 0 16 16" fill="none" xmlns="http://www.w3.org/2000/svg">
<path d="M0.439323 7.41281C0.475975 7.39436 0.512644 7.37682 0.548379 7.36021C1.16963 7.07049 1.79912 6.79922 2.4277 6.52795C2.4616 6.52795 2.5184 6.48827 2.55047 6.47535C2.59903 6.45413 2.6476 6.43384 2.69617 6.41262C2.78963 6.37202 2.88309 6.33234 2.97564 6.29174C3.16256 6.21147 3.34856 6.13121 3.53548 6.05093C3.90841 5.89039 4.28134 5.72984 4.65427 5.56837C5.40014 5.24728 6.14693 4.92524 6.8928 4.60415C7.63866 4.28305 8.38543 3.96104 9.1313 3.63995C9.87716 3.31885 10.6239 2.99684 11.3698 2.67575C12.1157 2.35466 12.8625 2.03264 13.6083 1.71155C13.7742 1.63958 13.9538 1.53255 14.1315 1.50118C14.2809 1.47442 14.4265 1.42276 14.5768 1.39415C14.8618 1.33971 15.1761 1.31757 15.4491 1.43659C15.5435 1.47811 15.6306 1.53623 15.7029 1.60912C16.0493 1.95421 16.0007 2.52075 15.9274 3.00608C15.4171 6.38863 14.9067 9.77211 14.3954 13.1547C14.3258 13.6188 14.2305 14.1281 13.8667 14.4215C13.5588 14.6697 13.1208 14.6974 12.7406 14.5922C12.3603 14.4861 12.0249 14.2637 11.696 14.045C10.3316 13.1353 8.96637 12.2255 7.60201 11.3157C7.27764 11.0998 6.91662 10.8175 6.92029 10.4254C6.92212 10.1892 7.0623 9.97878 7.20524 9.79147C8.39093 8.23398 10.1016 7.16368 11.3744 5.67816C11.554 5.46872 11.6951 5.09042 11.4486 4.96955C11.302 4.89758 11.1334 4.99537 10.9996 5.08856C9.31729 6.26498 7.63591 7.44232 5.9536 8.61874C5.40474 9.00258 4.8293 9.39749 4.16774 9.4916C3.57581 9.57649 2.98023 9.41041 2.40754 9.24063C1.9274 9.09854 1.44817 8.95275 0.970778 8.80236C0.716965 8.72301 0.454903 8.6372 0.258816 8.45727C0.0627292 8.27735 -0.0499597 7.97473 0.0682422 7.73483C0.142462 7.58443 0.286323 7.4894 0.437511 7.41189L0.439323 7.41281Z" fill="white"/>
</svg>
